P1
5 8
# 00000
# 00100
# 01100
# 01100
# 00100
# 00100
# 00000
# 00000
000
0000100
01100
01100
00100
00100
00000
00000